<mxfile host="65bd71144e">
    <diagram id="ezDw3SVe5yeL0uPRfTzG" name="Page-1">
        <mxGraphModel dx="1717" dy="1206" grid="1" gridSize="10" guides="1" tooltips="1" connect="1" arrows="1" fold="1" page="1" pageScale="1" pageWidth="3300" pageHeight="2339" math="0" shadow="0">
            <root>
                <mxCell id="0"/>
                <mxCell id="1" parent="0"/>
                <mxCell id="14" value="" style="whiteSpace=wrap;html=1;aspect=fixed;fontSize=19;" vertex="1" parent="1">
                    <mxGeometry x="250" y="822" width="695" height="695" as="geometry"/>
                </mxCell>
                <mxCell id="4" value="DUT_SHIFTER_0_1" style="rounded=0;whiteSpace=wrap;html=1;" vertex="1" parent="1">
                    <mxGeometry x="460" y="1030" width="260" height="120" as="geometry"/>
                </mxCell>
                <mxCell id="5" value="DUT_SHIFTER_0_0" style="rounded=0;whiteSpace=wrap;html=1;" vertex="1" parent="1">
                    <mxGeometry x="460" y="870" width="260" height="120" as="geometry"/>
                </mxCell>
                <mxCell id="6" value="" style="whiteSpace=wrap;html=1;aspect=fixed;align=center;" vertex="1" parent="1">
                    <mxGeometry x="1015" y="655" width="1030" height="1030" as="geometry"/>
                </mxCell>
                <mxCell id="7" value="FPGA" style="text;strokeColor=none;fillColor=none;html=1;fontSize=24;fontStyle=1;verticalAlign=middle;align=center;" vertex="1" parent="1">
                    <mxGeometry x="1015" y="655" width="100" height="40" as="geometry"/>
                </mxCell>
                <mxCell id="8" value="&lt;font style=&quot;font-size: 19px;&quot;&gt;SHIFTER_TESTER0&lt;/font&gt;" style="whiteSpace=wrap;html=1;aspect=fixed;" vertex="1" parent="1">
                    <mxGeometry x="1095" y="763.5" width="333" height="333" as="geometry"/>
                </mxCell>
                <mxCell id="10" value="&lt;span style=&quot;font-size: 19px;&quot;&gt;SHIFTER_OUTPUT&lt;/span&gt;" style="whiteSpace=wrap;html=1;aspect=fixed;" vertex="1" parent="1">
                    <mxGeometry x="1635" y="1003" width="333" height="333" as="geometry"/>
                </mxCell>
                <mxCell id="11" value="" style="whiteSpace=wrap;html=1;aspect=fixed;fontSize=19;" vertex="1" parent="1">
                    <mxGeometry x="2165" y="874.5" width="590" height="590" as="geometry"/>
                </mxCell>
                <mxCell id="12" value="12nm_SHIFTER_Tester" style="whiteSpace=wrap;html=1;aspect=fixed;fontSize=19;" vertex="1" parent="1">
                    <mxGeometry x="2280.75" y="991" width="358.5" height="358.5" as="geometry"/>
                </mxCell>
                <mxCell id="13" value="RPi" style="text;strokeColor=none;fillColor=none;html=1;fontSize=24;fontStyle=1;verticalAlign=middle;align=center;" vertex="1" parent="1">
                    <mxGeometry x="2165" y="874.5" width="100" height="40" as="geometry"/>
                </mxCell>
                <mxCell id="15" value="DUT" style="text;strokeColor=none;fillColor=none;html=1;fontSize=24;fontStyle=1;verticalAlign=middle;align=center;" vertex="1" parent="1">
                    <mxGeometry x="250" y="822" width="100" height="40" as="geometry"/>
                </mxCell>
                <mxCell id="30" value="DUT_SHIFTER_1_1" style="rounded=0;whiteSpace=wrap;html=1;" vertex="1" parent="1">
                    <mxGeometry x="460" y="1350" width="260" height="120" as="geometry"/>
                </mxCell>
                <mxCell id="31" value="DUT_SHIFTER_1_0" style="rounded=0;whiteSpace=wrap;html=1;" vertex="1" parent="1">
                    <mxGeometry x="460" y="1190" width="260" height="120" as="geometry"/>
                </mxCell>
                <mxCell id="32" value="&lt;font style=&quot;font-size: 19px;&quot;&gt;SHIFTER_TESTER1&lt;/font&gt;" style="whiteSpace=wrap;html=1;aspect=fixed;" vertex="1" parent="1">
                    <mxGeometry x="1095" y="1243.5" width="333" height="333" as="geometry"/>
                </mxCell>
                <mxCell id="33" value="" style="endArrow=classic;html=1;fontSize=19;exitX=1;exitY=0.75;exitDx=0;exitDy=0;entryX=0;entryY=0.5;entryDx=0;entryDy=0;" edge="1" parent="1" source="32" target="31">
                    <mxGeometry relative="1" as="geometry">
                        <mxPoint x="1190" y="1330" as="sourcePoint"/>
                        <mxPoint x="1350" y="1330" as="targetPoint"/>
                        <Array as="points">
                            <mxPoint x="1560" y="1493"/>
                            <mxPoint x="1560" y="1770"/>
                            <mxPoint x="330" y="1770"/>
                            <mxPoint x="330" y="1250"/>
                        </Array>
                    </mxGeometry>
                </mxCell>
                <mxCell id="34" value="Label" style="edgeLabel;resizable=0;html=1;align=center;verticalAlign=middle;fontSize=19;" connectable="0" vertex="1" parent="33">
                    <mxGeometry relative="1" as="geometry"/>
                </mxCell>
                <mxCell id="35" value="Source" style="edgeLabel;resizable=0;html=1;align=left;verticalAlign=bottom;fontSize=19;" connectable="0" vertex="1" parent="33">
                    <mxGeometry x="-1" relative="1" as="geometry"/>
                </mxCell>
                <mxCell id="36" value="Target" style="edgeLabel;resizable=0;html=1;align=right;verticalAlign=bottom;fontSize=19;" connectable="0" vertex="1" parent="33">
                    <mxGeometry x="1" relative="1" as="geometry"/>
                </mxCell>
                <mxCell id="37" value="" style="endArrow=classic;html=1;fontSize=19;exitX=1;exitY=1;exitDx=0;exitDy=0;entryX=0;entryY=0.5;entryDx=0;entryDy=0;" edge="1" parent="1" source="32" target="30">
                    <mxGeometry relative="1" as="geometry">
                        <mxPoint x="970" y="1280" as="sourcePoint"/>
                        <mxPoint x="1130" y="1280" as="targetPoint"/>
                        <Array as="points">
                            <mxPoint x="1530" y="1580"/>
                            <mxPoint x="1530" y="1720"/>
                            <mxPoint x="380" y="1720"/>
                            <mxPoint x="380" y="1410"/>
                        </Array>
                    </mxGeometry>
                </mxCell>
                <mxCell id="38" value="Label" style="edgeLabel;resizable=0;html=1;align=center;verticalAlign=middle;fontSize=19;" connectable="0" vertex="1" parent="37">
                    <mxGeometry relative="1" as="geometry"/>
                </mxCell>
                <mxCell id="39" value="Source" style="edgeLabel;resizable=0;html=1;align=left;verticalAlign=bottom;fontSize=19;" connectable="0" vertex="1" parent="37">
                    <mxGeometry x="-1" relative="1" as="geometry"/>
                </mxCell>
                <mxCell id="40" value="Target" style="edgeLabel;resizable=0;html=1;align=right;verticalAlign=bottom;fontSize=19;" connectable="0" vertex="1" parent="37">
                    <mxGeometry x="1" relative="1" as="geometry"/>
                </mxCell>
                <mxCell id="41" value="" style="endArrow=classic;html=1;fontSize=19;exitX=1;exitY=0.5;exitDx=0;exitDy=0;entryX=0;entryY=0.75;entryDx=0;entryDy=0;" edge="1" parent="1" source="30" target="32">
                    <mxGeometry relative="1" as="geometry">
                        <mxPoint x="970" y="1430" as="sourcePoint"/>
                        <mxPoint x="1130" y="1430" as="targetPoint"/>
                        <Array as="points">
                            <mxPoint x="880" y="1410"/>
                            <mxPoint x="880" y="1493"/>
                        </Array>
                    </mxGeometry>
                </mxCell>
                <mxCell id="42" value="Label" style="edgeLabel;resizable=0;html=1;align=center;verticalAlign=middle;fontSize=19;" connectable="0" vertex="1" parent="41">
                    <mxGeometry relative="1" as="geometry"/>
                </mxCell>
                <mxCell id="43" value="Source" style="edgeLabel;resizable=0;html=1;align=left;verticalAlign=bottom;fontSize=19;" connectable="0" vertex="1" parent="41">
                    <mxGeometry x="-1" relative="1" as="geometry"/>
                </mxCell>
                <mxCell id="44" value="Target" style="edgeLabel;resizable=0;html=1;align=right;verticalAlign=bottom;fontSize=19;" connectable="0" vertex="1" parent="41">
                    <mxGeometry x="1" relative="1" as="geometry"/>
                </mxCell>
                <mxCell id="45" value="" style="endArrow=classic;html=1;fontSize=19;exitX=1;exitY=0.5;exitDx=0;exitDy=0;entryX=0;entryY=0.25;entryDx=0;entryDy=0;" edge="1" parent="1" source="31" target="32">
                    <mxGeometry relative="1" as="geometry">
                        <mxPoint x="970" y="1430" as="sourcePoint"/>
                        <mxPoint x="1130" y="1430" as="targetPoint"/>
                        <Array as="points">
                            <mxPoint x="880" y="1250"/>
                            <mxPoint x="880" y="1327"/>
                        </Array>
                    </mxGeometry>
                </mxCell>
                <mxCell id="46" value="Label" style="edgeLabel;resizable=0;html=1;align=center;verticalAlign=middle;fontSize=19;" connectable="0" vertex="1" parent="45">
                    <mxGeometry relative="1" as="geometry"/>
                </mxCell>
                <mxCell id="47" value="Source" style="edgeLabel;resizable=0;html=1;align=left;verticalAlign=bottom;fontSize=19;" connectable="0" vertex="1" parent="45">
                    <mxGeometry x="-1" relative="1" as="geometry"/>
                </mxCell>
                <mxCell id="48" value="Target" style="edgeLabel;resizable=0;html=1;align=right;verticalAlign=bottom;fontSize=19;" connectable="0" vertex="1" parent="45">
                    <mxGeometry x="1" relative="1" as="geometry"/>
                </mxCell>
                <mxCell id="49" value="" style="endArrow=classic;html=1;fontSize=19;exitX=1;exitY=0.25;exitDx=0;exitDy=0;entryX=0;entryY=0.5;entryDx=0;entryDy=0;" edge="1" parent="1" source="8" target="4">
                    <mxGeometry relative="1" as="geometry">
                        <mxPoint x="970" y="970" as="sourcePoint"/>
                        <mxPoint x="1130" y="970" as="targetPoint"/>
                        <Array as="points">
                            <mxPoint x="1570" y="847"/>
                            <mxPoint x="1570" y="570"/>
                            <mxPoint x="340" y="570"/>
                            <mxPoint x="340" y="1090"/>
                        </Array>
                    </mxGeometry>
                </mxCell>
                <mxCell id="50" value="Label" style="edgeLabel;resizable=0;html=1;align=center;verticalAlign=middle;fontSize=19;" connectable="0" vertex="1" parent="49">
                    <mxGeometry relative="1" as="geometry"/>
                </mxCell>
                <mxCell id="51" value="Source" style="edgeLabel;resizable=0;html=1;align=left;verticalAlign=bottom;fontSize=19;" connectable="0" vertex="1" parent="49">
                    <mxGeometry x="-1" relative="1" as="geometry"/>
                </mxCell>
                <mxCell id="52" value="Target" style="edgeLabel;resizable=0;html=1;align=right;verticalAlign=bottom;fontSize=19;" connectable="0" vertex="1" parent="49">
                    <mxGeometry x="1" relative="1" as="geometry"/>
                </mxCell>
                <mxCell id="53" value="" style="endArrow=classic;html=1;fontSize=19;exitX=1;exitY=0;exitDx=0;exitDy=0;entryX=0;entryY=0.5;entryDx=0;entryDy=0;" edge="1" parent="1" source="8" target="5">
                    <mxGeometry relative="1" as="geometry">
                        <mxPoint x="970" y="970" as="sourcePoint"/>
                        <mxPoint x="1130" y="970" as="targetPoint"/>
                        <Array as="points">
                            <mxPoint x="1530" y="760"/>
                            <mxPoint x="1530" y="610"/>
                            <mxPoint x="400" y="610"/>
                            <mxPoint x="400" y="930"/>
                        </Array>
                    </mxGeometry>
                </mxCell>
                <mxCell id="54" value="Label" style="edgeLabel;resizable=0;html=1;align=center;verticalAlign=middle;fontSize=19;" connectable="0" vertex="1" parent="53">
                    <mxGeometry relative="1" as="geometry"/>
                </mxCell>
                <mxCell id="55" value="Source" style="edgeLabel;resizable=0;html=1;align=left;verticalAlign=bottom;fontSize=19;" connectable="0" vertex="1" parent="53">
                    <mxGeometry x="-1" relative="1" as="geometry"/>
                </mxCell>
                <mxCell id="56" value="Target" style="edgeLabel;resizable=0;html=1;align=right;verticalAlign=bottom;fontSize=19;" connectable="0" vertex="1" parent="53">
                    <mxGeometry x="1" relative="1" as="geometry"/>
                </mxCell>
                <mxCell id="57" value="" style="endArrow=classic;html=1;fontSize=19;exitX=1;exitY=0.5;exitDx=0;exitDy=0;entryX=0;entryY=0.25;entryDx=0;entryDy=0;" edge="1" parent="1" source="5" target="8">
                    <mxGeometry relative="1" as="geometry">
                        <mxPoint x="970" y="970" as="sourcePoint"/>
                        <mxPoint x="1130" y="970" as="targetPoint"/>
                        <Array as="points">
                            <mxPoint x="890" y="930"/>
                            <mxPoint x="890" y="847"/>
                        </Array>
                    </mxGeometry>
                </mxCell>
                <mxCell id="58" value="Label" style="edgeLabel;resizable=0;html=1;align=center;verticalAlign=middle;fontSize=19;" connectable="0" vertex="1" parent="57">
                    <mxGeometry relative="1" as="geometry"/>
                </mxCell>
                <mxCell id="59" value="Source" style="edgeLabel;resizable=0;html=1;align=left;verticalAlign=bottom;fontSize=19;" connectable="0" vertex="1" parent="57">
                    <mxGeometry x="-1" relative="1" as="geometry"/>
                </mxCell>
                <mxCell id="60" value="Target" style="edgeLabel;resizable=0;html=1;align=right;verticalAlign=bottom;fontSize=19;" connectable="0" vertex="1" parent="57">
                    <mxGeometry x="1" relative="1" as="geometry"/>
                </mxCell>
                <mxCell id="61" value="" style="endArrow=classic;html=1;fontSize=19;exitX=1;exitY=0.5;exitDx=0;exitDy=0;entryX=0;entryY=0.75;entryDx=0;entryDy=0;" edge="1" parent="1" source="4" target="8">
                    <mxGeometry relative="1" as="geometry">
                        <mxPoint x="970" y="970" as="sourcePoint"/>
                        <mxPoint x="1130" y="970" as="targetPoint"/>
                        <Array as="points">
                            <mxPoint x="890" y="1090"/>
                            <mxPoint x="890" y="1013"/>
                        </Array>
                    </mxGeometry>
                </mxCell>
                <mxCell id="62" value="Label" style="edgeLabel;resizable=0;html=1;align=center;verticalAlign=middle;fontSize=19;" connectable="0" vertex="1" parent="61">
                    <mxGeometry relative="1" as="geometry"/>
                </mxCell>
                <mxCell id="63" value="Source" style="edgeLabel;resizable=0;html=1;align=left;verticalAlign=bottom;fontSize=19;" connectable="0" vertex="1" parent="61">
                    <mxGeometry x="-1" relative="1" as="geometry"/>
                </mxCell>
                <mxCell id="64" value="Target" style="edgeLabel;resizable=0;html=1;align=right;verticalAlign=bottom;fontSize=19;" connectable="0" vertex="1" parent="61">
                    <mxGeometry x="1" relative="1" as="geometry"/>
                </mxCell>
            </root>
        </mxGraphModel>
    </diagram>
</mxfile>